<svg width="79" height="72" viewBox="0 0 79 72" fill="none" xmlns="http://www.w3.org/2000/svg">
<path d="M29.0873 0.83535C22.3936 0.799934 15.8769 7.24577 18.8519 15.2499H7.62484C5.74622 15.2499 3.94455 15.9962 2.61616 17.3246C1.28778 18.653 0.541504 20.4547 0.541504 22.3333V29.4166C0.541504 30.3559 0.914643 31.2567 1.57883 31.9209C2.24303 32.5851 3.14386 32.9583 4.08317 32.9583H35.9582V22.3333H43.0415V32.9583H74.9165C75.8558 32.9583 76.7567 32.5851 77.4209 31.9209C78.085 31.2567 78.4582 30.3559 78.4582 29.4166V22.3333C78.4582 20.4547 77.7119 18.653 76.3835 17.3246C75.0551 15.9962 73.2535 15.2499 71.3748 15.2499H60.1478C64.2915 3.66868 48.7082 -4.51257 41.5186 5.47493L39.4998 8.1666L37.4811 5.4041C35.2498 2.25202 32.1686 0.870767 29.0873 0.83535ZM28.8748 8.1666C32.0269 8.1666 33.6207 11.9916 31.3894 14.2229C29.1582 16.4541 25.3332 14.8604 25.3332 11.7083C25.3332 10.769 25.7063 9.86812 26.3705 9.20393C27.0347 8.53974 27.9355 8.1666 28.8748 8.1666ZM50.1248 8.1666C53.2769 8.1666 54.8707 11.9916 52.6394 14.2229C50.4082 16.4541 46.5832 14.8604 46.5832 11.7083C46.5832 10.769 46.9563 9.86812 47.6205 9.20393C48.2847 8.53974 49.1855 8.1666 50.1248 8.1666ZM4.08317 36.4999V64.8333C4.08317 66.7119 4.82945 68.5136 6.15783 69.8419C7.48621 71.1703 9.28789 71.9166 11.1665 71.9166H67.8332C69.7118 71.9166 71.5135 71.1703 72.8419 69.8419C74.1702 68.5136 74.9165 66.7119 74.9165 64.8333V36.4999H43.0415V64.8333H35.9582V36.4999H4.08317Z" fill="#FFC49C"/>
</svg>
