<svg width="85" height="75" viewBox="0 0 85 75" fill="none" xmlns="http://www.w3.org/2000/svg">
<path d="M0.94873 37.2329C0.94873 38.9405 2.29962 39.9727 3.9723 39.9727C5.00444 39.9727 5.82257 39.4748 6.53444 38.7629L41.2554 7.13685C41.6455 6.74524 42.0736 6.60257 42.535 6.60257C42.963 6.60257 43.3546 6.74524 43.7796 7.13685L78.4657 38.7629C79.2125 39.4748 80.0306 39.9727 81.0278 39.9727C82.699 39.9727 84.0514 38.9405 84.0514 37.2329C84.0514 36.1659 83.6598 35.4904 82.9844 34.8848L70.6745 23.68V2.65462C70.6745 1.08971 69.6788 0.0939941 68.1139 0.0939941H63.4541C61.9241 0.0939941 60.857 1.08971 60.857 2.65462V14.7504L46.7683 1.8714C45.5236 0.698101 43.9936 0.130423 42.5001 0.130423C41.005 0.130423 39.5114 0.699619 38.2303 1.87292L2.01578 34.8848C1.37525 35.4904 0.94873 36.1659 0.94873 37.2329ZM11.1229 67.0801C11.1229 72.0252 14.1116 74.9077 19.1266 74.9077H33.5356V49.6126C33.5356 47.9763 34.6376 46.9108 36.2738 46.9108H48.8326C50.4688 46.9108 51.5359 47.9763 51.5359 49.6126V74.9077H65.9085C70.9235 74.9077 73.8772 72.0252 73.8772 67.0801V41.0397L43.6734 13.8245C43.2818 13.4694 42.8552 13.2918 42.4287 13.2918C42.0371 13.2918 41.6455 13.4693 41.219 13.861L11.1229 41.2173V67.0801Z" fill="white"/>
</svg>
