<svg width="107" height="85" viewBox="0 0 107 85" fill="none" xmlns="http://www.w3.org/2000/svg">
<g clip-path="url(#clip0_21_87)">
<path d="M15.9375 15.9375V53.125C15.9375 58.9854 20.7021 63.75 26.5625 63.75H95.625C101.485 63.75 106.25 58.9854 106.25 53.125V15.9375C106.25 10.0771 101.485 5.3125 95.625 5.3125H26.5625C20.7021 5.3125 15.9375 10.0771 15.9375 15.9375ZM26.5625 42.5C32.4228 42.5 37.1875 47.2646 37.1875 53.125H26.5625V42.5ZM37.1875 15.9375C37.1875 21.7979 32.4228 26.5625 26.5625 26.5625V15.9375H37.1875ZM95.625 42.5V53.125H85C85 47.2646 89.7646 42.5 95.625 42.5ZM85 15.9375H95.625V26.5625C89.7646 26.5625 85 21.7979 85 15.9375ZM47.8125 34.5312C47.8125 31.0088 49.2118 27.6307 51.7025 25.14C54.1932 22.6493 57.5713 21.25 61.0937 21.25C64.6161 21.25 67.9943 22.6493 70.485 25.14C72.9757 27.6307 74.375 31.0088 74.375 34.5312C74.375 38.0537 72.9757 41.4318 70.485 43.9225C67.9943 46.4132 64.6161 47.8125 61.0937 47.8125C57.5713 47.8125 54.1932 46.4132 51.7025 43.9225C49.2118 41.4318 47.8125 38.0537 47.8125 34.5312ZM7.96875 19.9219C7.96875 17.7139 6.19238 15.9375 3.98437 15.9375C1.77637 15.9375 0 17.7139 0 19.9219V59.7656C0 70.7725 8.91504 79.6875 19.9219 79.6875H86.3281C88.5361 79.6875 90.3125 77.9111 90.3125 75.7031C90.3125 73.4951 88.5361 71.7188 86.3281 71.7188H19.9219C13.3145 71.7188 7.96875 66.373 7.96875 59.7656V19.9219Z" fill="#A4FF9C"/>
</g>
<defs>
<clipPath id="clip0_21_87">
<rect width="106.25" height="85" fill="white"/>
</clipPath>
</defs>
</svg>
